<?xml version="1.0" standalone="no"?>
<!DOCTYPE svg PUBLIC "-//W3C//DTD SVG 20010904//EN"
 "http://www.w3.org/TR/2001/REC-SVG-20010904/DTD/svg10.dtd">
<svg version="1.0" xmlns="http://www.w3.org/2000/svg"
 width="3104.000000pt" height="3104.000000pt" viewBox="0 0 3104.000000 3104.000000"
 preserveAspectRatio="xMidYMid meet">
<metadata>
Created by potrace 1.14, written by Peter Selinger 2001-2017
</metadata>
<g transform="translate(0.000000,3104.000000) scale(0.100000,-0.100000)"
fill="#000000" stroke="none">
<path d="M17479 20316 c-2 -2 -40 -6 -84 -10 -87 -7 -112 -10 -195 -21 -30 -4
-64 -9 -75 -11 -11 -1 -20 -3 -20 -4 0 -1 -13 -4 -30 -6 -16 -2 -41 -7 -55
-11 -14 -3 -32 -7 -40 -9 -8 -1 -31 -6 -50 -9 -19 -4 -89 -23 -155 -42 -66
-19 -124 -36 -130 -37 -5 -2 -23 -8 -38 -14 -15 -7 -39 -15 -53 -18 -13 -3
-27 -10 -30 -15 -3 -5 -10 -7 -15 -3 -5 3 -15 2 -22 -4 -7 -5 -39 -19 -72 -32
-33 -13 -85 -36 -116 -51 -31 -16 -59 -25 -63 -22 -3 4 -6 1 -6 -5 0 -10 -25
-23 -44 -21 -5 0 -12 -3 -15 -8 -3 -5 -40 -26 -81 -48 -41 -21 -77 -42 -78
-47 -2 -4 -8 -6 -13 -2 -5 3 -9 1 -9 -4 0 -5 -18 -17 -40 -27 -22 -10 -40 -22
-40 -27 0 -4 -5 -8 -11 -8 -10 0 -136 -81 -177 -115 -9 -7 -48 -37 -87 -66
-38 -29 -90 -70 -114 -91 -24 -21 -48 -38 -53 -38 -5 0 -19 9 -31 21 -39 36
-195 157 -259 201 -205 140 -510 301 -693 367 -16 6 -43 16 -60 22 -16 7 -32
13 -35 14 -3 1 -57 18 -120 38 -112 36 -265 77 -305 82 -11 1 -20 3 -20 5 0 1
-11 3 -25 5 -14 1 -38 6 -55 9 -16 4 -43 9 -60 11 -16 2 -43 6 -60 9 -31 5
-79 11 -180 23 -81 9 -557 9 -625 -1 -30 -4 -73 -9 -95 -11 -172 -17 -397 -66
-597 -128 -27 -8 -48 -13 -48 -10 0 2 -10 -3 -22 -11 -12 -9 -32 -16 -45 -16
-12 0 -25 -5 -28 -10 -4 -6 -11 -8 -16 -5 -5 4 -9 1 -9 -5 0 -6 -4 -9 -9 -5
-5 3 -12 1 -16 -5 -4 -6 -11 -8 -16 -5 -5 4 -9 1 -9 -5 0 -6 -4 -9 -9 -5 -5 3
-12 1 -16 -5 -3 -5 -12 -10 -20 -10 -8 0 -53 -18 -100 -40 -47 -22 -90 -40
-95 -40 -4 0 -10 -4 -12 -8 -1 -4 -30 -21 -63 -37 -33 -15 -62 -31 -65 -34 -3
-3 -31 -19 -62 -36 -32 -16 -58 -34 -58 -38 0 -5 -4 -5 -10 -2 -5 3 -10 2 -10
-3 0 -5 -12 -15 -27 -23 -31 -15 -226 -152 -258 -180 -11 -10 -49 -42 -85 -71
-74 -60 -68 -54 -191 -174 -52 -50 -116 -117 -144 -149 -27 -32 -55 -63 -60
-69 -35 -37 -135 -166 -129 -166 4 0 -2 -8 -12 -17 -11 -10 -32 -38 -49 -63
-16 -25 -38 -55 -49 -67 -11 -13 -15 -23 -10 -23 5 0 4 -4 -3 -8 -35 -22 -214
-366 -297 -570 -87 -214 -176 -522 -192 -662 -1 -14 -3 -25 -4 -25 -4 0 -19
-91 -26 -155 -3 -25 -7 -61 -9 -80 -18 -137 -23 -466 -10 -615 4 -44 8 -97 9
-117 0 -21 3 -38 6 -38 3 0 6 -8 7 -17 0 -17 11 -111 16 -143 2 -8 6 -21 10
-27 5 -7 6 -13 4 -13 -3 0 -1 -17 4 -37 5 -21 12 -56 15 -78 4 -22 10 -47 14
-55 4 -8 10 -32 14 -53 4 -21 16 -65 27 -99 10 -33 19 -65 19 -70 0 -5 -634
-8 -1580 -6 -869 2 -1580 7 -1580 11 0 5 -5 5 -12 1 -15 -9 -219 -11 -224 -2
-3 4 -15 4 -27 0 -19 -7 -83 -8 -97 -2 -3 1 -9 1 -15 0 -5 -1 -140 -2 -300 -1
-1224 5 -1260 6 -1257 19 1 6 -2 12 -7 12 -6 0 -6 12 -1 30 5 17 5 30 0 30 -5
0 -7 6 -4 13 9 25 9 157 0 157 -6 0 -5 5 1 11 8 8 8 20 3 34 -5 13 -7 25 -4
27 7 8 9 118 2 118 -4 0 -5 6 -3 13 9 21 11 107 3 107 -4 0 -5 6 -2 13 9 25 9
157 0 157 -6 0 -5 5 1 11 8 8 8 20 3 34 -5 13 -7 25 -4 27 7 8 9 118 2 118 -4
0 -5 6 -3 13 9 21 11 107 3 107 -4 0 -5 6 -2 13 9 25 9 157 0 157 -6 0 -5 5 1
11 8 8 8 20 3 34 -5 13 -7 25 -4 27 7 8 9 118 2 118 -4 0 -5 6 -3 13 9 21 11
107 3 107 -4 0 -5 6 -2 13 9 25 9 157 0 157 -6 0 -5 5 1 11 8 8 8 20 3 34 -5
13 -7 25 -4 27 7 8 9 118 2 118 -4 0 -5 6 -3 13 9 21 11 107 3 107 -4 0 -5 6
-2 13 9 25 9 157 0 157 -6 0 -5 5 1 11 8 8 8 20 3 34 -5 13 -7 25 -4 27 7 8 9
118 2 118 -4 0 -5 6 -3 13 9 21 11 107 3 107 -4 0 -5 6 -2 13 9 25 9 157 0
157 -6 0 -5 5 1 11 8 8 8 20 3 34 -5 13 -7 25 -4 27 7 8 9 118 2 118 -4 0 -5
6 -3 13 9 21 11 107 3 107 -4 0 -5 6 -2 13 9 25 9 157 0 157 -6 0 -5 5 1 11 8
8 8 20 3 34 -5 13 -7 25 -4 27 7 8 9 118 2 118 -4 0 -5 6 -3 13 9 21 11 107 3
107 -4 0 -5 6 -2 13 9 25 9 157 0 157 -6 0 -5 5 1 11 8 8 8 20 3 34 -5 13 -7
25 -4 27 6 7 6 80 -1 108 -3 14 -7 30 -8 35 -11 47 -102 129 -156 140 -41 8
-117 9 -129 1 -7 -4 -12 -4 -12 1 0 10 -182 9 -198 -1 -7 -4 -12 -4 -12 1 0 8
-218 9 -226 0 -3 -2 -21 -1 -40 3 -19 4 -36 4 -39 -1 -3 -4 -16 -5 -28 -1 -26
10 -38 9 -54 -1 -7 -5 -13 -5 -13 0 0 10 -131 10 -148 -1 -6 -4 -12 -4 -12 1
0 7 -116 9 -145 3 -5 -1 -14 -2 -19 -1 -19 4 -106 -21 -106 -30 0 -5 -7 -9
-15 -9 -8 0 -15 -3 -15 -7 0 -5 -14 -22 -30 -40 -28 -30 -60 -126 -47 -140 3
-3 2 -16 -3 -29 -6 -15 -6 -26 1 -30 6 -3 6 -10 1 -17 -5 -7 -6 -21 -2 -32 4
-11 4 -30 -1 -41 -4 -12 -5 -25 -2 -28 7 -7 6 -216 -1 -224 -3 -3 -1 -11 5
-18 6 -8 6 -14 0 -18 -6 -4 -6 -18 -1 -36 11 -37 10 -40 -1 -62 -6 -10 -5 -19
1 -23 6 -3 6 -15 0 -30 -6 -16 -6 -27 1 -31 6 -3 6 -10 1 -17 -5 -7 -6 -21 -2
-32 4 -11 4 -30 -1 -42 -5 -13 -4 -25 2 -29 7 -4 7 -10 0 -18 -6 -7 -8 -15 -5
-19 8 -7 8 -257 0 -264 -3 -4 -1 -12 5 -19 6 -8 6 -14 0 -18 -6 -4 -6 -18 -1
-36 11 -37 10 -40 -1 -62 -6 -10 -5 -19 1 -23 6 -3 6 -15 0 -30 -6 -16 -6 -27
1 -31 6 -3 6 -10 1 -17 -5 -7 -6 -21 -2 -32 4 -11 4 -30 -1 -42 -5 -13 -4 -25
2 -29 7 -4 7 -10 0 -18 -6 -7 -8 -15 -6 -18 7 -7 7 -499 0 -506 -2 -3 0 -11 6
-18 7 -8 7 -14 -1 -19 -6 -3 -8 -11 -4 -16 8 -13 8 -175 0 -188 -4 -5 -2 -13
4 -16 8 -5 8 -11 1 -19 -6 -7 -8 -15 -5 -19 5 -5 8 -160 4 -182 -1 -5 -2 -14
-1 -20 4 -32 1 -778 -4 -785 -3 -5 -1 -12 5 -15 8 -5 8 -11 1 -19 -6 -7 -8
-15 -5 -19 8 -7 8 -173 0 -186 -4 -5 -2 -13 4 -16 8 -5 8 -11 1 -19 -6 -7 -8
-15 -5 -19 5 -5 8 -160 4 -182 -1 -5 -2 -14 -1 -20 4 -31 1 -457 -4 -465 -3
-5 -1 -12 5 -15 8 -5 8 -11 1 -19 -6 -7 -8 -15 -5 -19 8 -7 8 -173 0 -186 -4
-5 -2 -13 4 -16 8 -5 8 -11 1 -19 -6 -7 -8 -15 -5 -19 5 -5 8 -160 4 -182 -1
-5 -2 -14 -1 -20 4 -31 1 -457 -4 -465 -3 -5 -1 -12 5 -15 8 -5 8 -11 1 -19
-6 -7 -8 -15 -5 -19 8 -7 8 -173 0 -186 -4 -5 -2 -13 4 -16 8 -5 8 -11 1 -19
-6 -7 -8 -15 -5 -19 5 -5 8 -160 4 -182 -1 -5 -2 -14 -1 -20 4 -31 1 -457 -4
-465 -3 -5 -1 -12 5 -15 8 -5 8 -11 1 -19 -6 -7 -8 -15 -5 -19 8 -7 8 -173 0
-186 -4 -5 -2 -13 4 -16 8 -5 8 -11 1 -19 -6 -7 -8 -15 -5 -19 5 -5 8 -160 4
-182 -1 -5 -2 -14 0 -20 4 -24 1 -135 -4 -144 -4 -5 -2 -13 4 -16 8 -5 8 -11
1 -19 -6 -7 -8 -15 -5 -19 8 -7 8 -173 0 -186 -4 -5 -2 -13 4 -16 8 -5 8 -11
1 -19 -6 -7 -8 -15 -5 -19 5 -5 8 -160 4 -182 -1 -5 -2 -14 -1 -20 4 -31 1
-457 -4 -465 -3 -5 -1 -12 5 -15 8 -5 8 -11 1 -19 -6 -7 -8 -15 -5 -19 8 -7 8
-173 0 -186 -4 -5 -2 -13 4 -16 8 -5 8 -11 1 -19 -6 -7 -8 -15 -5 -19 5 -5 8
-160 4 -182 -1 -5 -2 -12 -1 -15 1 -3 3 -43 4 -90 4 -93 13 -116 68 -170 69
-68 54 -66 664 -64 303 1 557 4 565 6 50 16 85 40 126 90 12 15 35 78 29 78
-3 0 0 11 5 25 6 15 6 26 -1 30 -5 4 -7 11 -3 16 9 15 11 69 3 69 -4 0 -3 16
1 35 5 21 4 35 -2 35 -5 0 -6 4 -3 10 9 14 12 80 4 80 -4 0 -3 16 1 35 4 20 4
38 -1 41 -5 3 -7 10 -3 15 9 15 11 69 3 69 -4 0 -3 16 1 35 5 21 4 35 -2 35
-5 0 -6 4 -3 10 9 14 12 80 4 80 -4 0 -3 16 1 35 4 20 4 38 -1 41 -5 3 -7 10
-3 15 9 15 11 69 3 69 -4 0 -3 16 1 35 5 21 4 35 -2 35 -5 0 -6 4 -3 10 9 14
12 80 4 80 -4 0 -3 16 1 35 4 20 4 38 -1 41 -5 3 -7 10 -3 15 9 15 11 69 3 69
-4 0 -3 16 1 35 5 21 4 35 -2 35 -5 0 -6 4 -3 10 9 14 12 80 4 80 -4 0 -3 16
1 35 4 20 4 38 -1 41 -5 3 -7 10 -3 15 9 15 11 69 3 69 -4 0 -3 16 1 35 5 21
4 35 -2 35 -5 0 -6 4 -3 10 9 14 12 80 4 80 -4 0 -3 16 1 35 4 20 4 38 -1 41
-5 3 -7 10 -3 15 9 15 11 69 3 69 -4 0 -3 16 1 35 5 21 4 35 -2 35 -5 0 -6 4
-3 10 9 14 12 80 4 80 -4 0 -3 16 1 35 4 20 4 38 -1 41 -5 3 -7 10 -3 15 9 15
11 69 3 69 -4 0 -3 16 1 35 5 21 4 35 -2 35 -5 0 -6 4 -3 10 9 14 12 80 4 80
-4 0 -3 16 1 35 4 20 4 38 -1 41 -5 3 -7 10 -3 15 9 15 11 69 3 69 -4 0 -3 16
1 35 5 21 4 35 -2 35 -5 0 -6 4 -3 10 9 14 12 80 4 80 -4 0 -3 16 1 35 4 20 4
38 -1 41 -5 3 -7 10 -3 15 9 15 11 69 3 69 -4 0 -3 16 1 35 5 21 4 35 -2 35
-5 0 -6 4 -3 10 9 14 12 80 4 80 -4 0 -3 16 1 35 4 20 4 38 -1 41 -5 3 -7 10
-3 15 9 15 11 69 3 69 -4 0 -3 16 1 35 5 21 4 35 -2 35 -5 0 -6 4 -3 10 9 14
12 80 4 80 -4 0 -3 16 1 35 4 20 4 38 -1 41 -5 3 -7 10 -3 15 9 15 11 69 3 69
-4 0 -3 16 1 35 5 21 4 35 -2 35 -5 0 -6 4 -3 10 9 14 12 80 4 80 -4 0 -3 16
1 35 4 20 4 38 -1 41 -5 3 -6 12 -1 21 5 8 6 32 2 54 -4 21 -3 36 1 33 5 -3 6
9 3 26 -5 21 -3 30 7 31 14 1 884 0 884 -1 0 0 594 -1 1320 -3 737 -1 1326 -6
1334 -11 9 -6 12 -5 8 1 -8 13 256 11 265 -2 5 -7 8 -6 8 1 0 11 137 13 156 1
6 -3 14 -3 18 0 10 11 176 10 176 0 0 -5 8 -3 17 4 14 12 16 12 8 0 -6 -10 -4
-12 6 -6 18 12 219 13 219 1 0 -4 6 -4 13 1 6 5 21 8 32 7 27 -3 58 -4 133 -4
34 0 68 0 75 0 6 -1 24 1 40 3 15 2 27 0 27 -5 0 -5 5 -6 11 -3 17 11 59 13
65 3 3 -4 11 -5 17 -1 17 10 47 11 53 1 3 -4 9 -6 14 -3 17 11 70 12 70 2 0
-8 4 -7 11 0 7 7 20 8 33 4 11 -5 30 -5 41 -1 11 4 28 3 38 -2 11 -5 17 -5 17
1 0 7 8 7 23 2 13 -5 30 -5 39 0 11 6 19 5 23 -1 4 -6 13 -7 23 -1 9 5 26 5
37 1 11 -4 30 -4 42 1 13 5 25 4 29 -2 4 -7 10 -7 18 0 7 6 15 8 19 5 9 -10
57 -12 63 -3 3 5 14 4 25 -1 13 -8 19 -7 19 0 0 7 6 8 19 0 12 -6 22 -6 26 -1
3 6 17 6 35 1 19 -5 30 -5 30 1 0 6 5 7 11 4 16 -11 69 -12 69 -3 0 5 8 4 19
-1 10 -6 21 -8 23 -5 3 2 27 7 53 9 26 3 56 10 66 16 10 5 19 7 19 4 0 -10
102 50 107 63 3 6 10 12 17 12 12 1 66 69 89 115 30 59 46 146 42 224 -4 86
-6 94 -48 191 -47 107 -160 430 -152 430 3 0 0 11 -5 25 -5 14 -12 36 -14 48
-3 12 -8 33 -11 47 -11 47 -17 75 -20 95 -1 11 -3 20 -5 20 -2 0 -3 8 -14 90
-4 28 -9 57 -12 65 -10 38 -27 269 -27 385 0 95 10 290 19 340 2 17 7 44 9 60
13 88 30 178 39 210 2 6 6 28 11 50 4 22 10 45 14 50 3 6 7 18 8 29 4 22 60
187 80 236 8 19 19 44 23 55 44 105 150 307 177 338 9 9 12 17 7 17 -5 0 -4 4
1 8 6 4 30 36 54 72 25 36 48 67 53 68 4 2 8 10 8 17 0 7 3 15 8 17 4 2 18 16
31 33 65 84 272 305 286 305 3 0 13 8 23 18 117 113 341 263 535 356 111 53
144 66 161 65 5 0 12 4 16 11 4 6 17 12 28 13 12 1 22 4 22 7 0 5 81 30 95 30
3 0 18 6 34 14 16 9 31 13 34 10 3 -3 12 -2 19 2 7 5 18 9 23 10 6 1 30 7 55
14 25 7 54 13 65 15 11 1 31 5 45 9 31 7 93 17 141 21 20 1 41 4 45 7 27 13
407 17 509 5 33 -4 83 -10 110 -13 98 -11 373 -75 435 -101 8 -3 20 -7 25 -8
6 0 19 -5 30 -9 11 -5 47 -19 80 -32 103 -40 168 -69 225 -99 30 -16 58 -28
63 -27 4 1 7 -2 7 -8 0 -5 5 -10 11 -10 12 0 127 -68 147 -87 7 -7 18 -13 23
-13 5 0 15 -5 22 -10 7 -6 53 -41 104 -78 122 -89 194 -153 343 -302 132 -132
203 -179 281 -185 20 -1 41 -5 45 -7 25 -14 145 2 214 29 8 4 17 7 20 7 22 5
86 61 205 181 77 77 162 158 188 180 27 22 54 45 60 51 7 6 51 38 97 72 47 34
90 65 95 69 6 5 53 34 105 65 162 96 337 178 480 224 25 9 52 18 60 21 8 3 21
7 29 9 8 1 35 9 60 17 46 15 182 46 224 51 12 2 33 6 47 10 14 3 52 8 85 11
33 2 60 4 60 5 0 10 332 14 430 6 39 -4 90 -8 115 -11 25 -2 45 -4 45 -5 0 -2
31 -8 80 -15 46 -6 64 -10 85 -17 8 -3 58 -15 110 -28 52 -13 101 -27 108 -33
6 -5 12 -6 12 -2 0 4 7 1 17 -6 9 -8 17 -12 17 -10 4 17 261 -94 401 -173 73
-41 257 -161 295 -193 12 -10 31 -25 41 -35 11 -9 38 -31 61 -50 80 -65 228
-217 308 -317 14 -17 35 -43 48 -58 12 -16 35 -46 50 -68 15 -22 31 -43 37
-47 5 -4 6 -8 2 -8 -4 0 1 -9 11 -20 10 -11 25 -33 33 -48 8 -15 16 -29 20
-32 34 -31 228 -443 244 -520 2 -8 9 -28 15 -45 6 -16 13 -37 15 -45 2 -8 14
-58 28 -110 14 -52 28 -108 31 -125 3 -16 9 -57 15 -90 6 -33 13 -82 16 -110
13 -114 42 -188 102 -259 101 -120 294 -182 452 -145 54 12 151 59 151 72 0 6
3 8 6 5 16 -17 107 118 122 181 8 34 7 194 -2 246 -24 142 -32 183 -46 250 -6
28 -12 59 -14 70 -2 11 -6 27 -9 35 -3 8 -8 29 -11 45 -8 57 -90 315 -117 370
-6 12 -11 27 -13 35 -1 8 -10 32 -19 54 -9 21 -17 40 -17 42 0 3 -19 44 -42
92 -23 48 -42 89 -43 92 -1 7 -50 101 -77 147 -11 21 -32 58 -46 83 -14 25
-29 48 -34 51 -6 3 -9 10 -9 15 1 5 -4 16 -11 24 -7 8 -19 28 -27 43 -8 15
-18 27 -23 27 -4 0 -8 6 -8 14 0 8 -6 21 -13 28 -7 7 -30 38 -52 68 -129 180
-270 338 -469 527 -27 25 -165 139 -192 158 -15 11 -35 27 -44 35 -16 15 -23
20 -85 60 -49 32 -67 44 -79 55 -45 41 -374 217 -516 276 -93 38 -311 116
-365 130 -22 6 -58 15 -80 20 -22 6 -48 13 -57 15 -10 2 -26 6 -35 8 -71 18
-168 36 -189 36 -13 0 -24 3 -24 8 0 4 -15 7 -33 8 -17 0 -56 4 -85 8 -30 4
-75 10 -100 12 -56 6 -508 14 -513 10z"/>
<path d="M26235 19941 c-3 -2 -15 -6 -26 -8 -51 -8 -116 -59 -144 -112 -20
-39 -35 -110 -25 -116 5 -3 5 -19 0 -35 -5 -17 -5 -30 -1 -30 5 0 5 -19 1 -42
-5 -24 -5 -49 0 -57 4 -8 4 -27 0 -43 -5 -17 -5 -28 1 -28 6 0 7 -4 4 -10 -9
-14 -11 -143 -2 -157 4 -6 3 -14 -2 -18 -6 -3 -7 -15 -2 -28 5 -12 5 -34 0
-49 -5 -17 -4 -28 2 -28 6 0 7 -5 4 -11 -6 -9 -10 -179 -5 -204 1 -5 2 -14 0
-20 -5 -26 -4 -105 1 -105 4 0 3 -19 -1 -42 -5 -24 -5 -49 0 -57 4 -8 4 -27 0
-43 -5 -17 -5 -28 1 -28 6 0 7 -5 4 -10 -9 -15 -10 -114 -1 -128 4 -7 2 -12
-4 -12 -7 0 -8 -6 -1 -18 7 -13 6 -23 -1 -30 -9 -9 -9 -12 1 -12 7 0 9 -5 6
-10 -9 -15 -11 -100 -3 -100 4 0 5 -6 2 -14 -9 -23 -10 -116 -1 -116 5 0 5 -5
2 -11 -9 -13 -11 -197 -2 -205 3 -3 3 -16 -1 -28 -4 -11 -6 -34 -5 -51 5 -49
4 -96 -2 -115 -3 -10 -1 -21 4 -24 6 -4 6 -18 1 -36 -5 -17 -5 -30 -1 -30 5 0
5 -19 1 -42 -5 -24 -5 -49 0 -57 4 -8 4 -27 0 -43 -5 -17 -5 -28 1 -28 6 0 7
-4 4 -10 -9 -14 -11 -143 -2 -157 4 -6 3 -14 -2 -18 -6 -3 -7 -15 -2 -28 5
-12 5 -34 0 -49 -5 -17 -4 -28 2 -28 6 0 7 -5 4 -11 -6 -9 -10 -179 -5 -204 1
-5 2 -14 0 -20 -5 -26 -4 -105 1 -105 4 0 3 -19 -1 -42 -5 -24 -5 -49 0 -57 4
-8 4 -27 0 -43 -5 -17 -5 -28 1 -28 6 0 7 -5 4 -10 -9 -15 -10 -114 -1 -128 4
-7 2 -12 -4 -12 -7 0 -8 -6 -1 -18 7 -13 6 -23 -1 -30 -9 -9 -9 -12 1 -12 7 0
9 -5 6 -10 -9 -15 -11 -100 -3 -100 4 0 5 -6 2 -14 -9 -23 -10 -116 -1 -116 5
0 5 -5 2 -11 -9 -13 -11 -197 -2 -205 3 -3 3 -13 0 -21 -3 -8 -6 -34 -7 -56
l-1 -42 -755 -3 c-415 -1 -759 -2 -765 -3 -5 -1 -26 -1 -45 0 -54 1 -108 1
-193 -2 -42 -1 -77 1 -77 5 0 4 -7 5 -15 2 -27 -11 -855 -10 -855 1 0 7 -3 7
-8 0 -9 -12 -112 -15 -112 -3 0 5 -5 6 -12 2 -7 -4 -674 -9 -1483 -11 -1021
-2 -1488 -6 -1530 -14 -131 -24 -240 -102 -292 -207 -15 -31 -32 -60 -38 -64
-5 -4 -7 -8 -3 -8 7 0 -95 -205 -113 -226 -5 -6 -6 -14 -2 -17 3 -4 2 -7 -4
-7 -6 0 -16 -12 -22 -27 -6 -16 -19 -41 -29 -58 -9 -16 -31 -52 -46 -80 -16
-27 -35 -57 -42 -65 -6 -8 -20 -31 -31 -50 -29 -53 -132 -209 -144 -215 -5 -4
-7 -11 -4 -16 4 -5 2 -9 -3 -9 -7 0 -47 -54 -87 -118 -5 -9 -15 -22 -21 -29
-7 -7 -51 -64 -99 -128 -48 -63 -92 -115 -98 -115 -6 0 -8 -3 -4 -6 3 -4 1
-12 -6 -19 -7 -7 -28 -31 -47 -55 -19 -24 -39 -48 -45 -54 -5 -6 -37 -43 -70
-81 -33 -38 -67 -77 -75 -86 -8 -9 -55 -60 -105 -114 -94 -104 -452 -465 -460
-465 -2 0 -36 -31 -75 -69 -38 -38 -70 -67 -70 -65 0 3 -10 -5 -23 -18 -24
-24 -140 -127 -190 -169 -16 -13 -41 -36 -57 -51 -16 -16 -31 -28 -35 -28 -3
0 -16 -11 -29 -23 -13 -13 -46 -41 -72 -63 -27 -21 -51 -41 -54 -44 -3 -3 -34
-28 -69 -55 -36 -28 -72 -57 -81 -65 -40 -36 -70 -59 -70 -53 0 4 -6 0 -13 -9
-6 -8 -41 -37 -77 -64 -36 -27 -74 -56 -85 -66 -11 -9 -45 -35 -75 -57 -30
-22 -59 -44 -65 -48 -5 -5 -25 -20 -44 -33 -19 -14 -42 -30 -50 -37 -70 -54
-153 -113 -161 -113 -4 0 -10 -3 -12 -8 -5 -11 -146 -112 -157 -112 -5 0 -11
-4 -13 -8 -1 -5 -32 -28 -68 -52 -36 -24 -66 -47 -68 -52 -2 -4 -8 -8 -14 -8
-11 0 -81 -51 -86 -62 -2 -5 -7 -8 -12 -8 -6 0 -150 -93 -196 -127 -26 -20
-50 -34 -66 -39 -10 -4 -18 -9 -18 -13 0 -4 -15 -15 -32 -26 -18 -10 -77 -47
-130 -82 -54 -35 -102 -63 -107 -63 -5 0 -11 -4 -13 -8 -1 -5 -36 -28 -76 -53
-40 -24 -96 -58 -125 -76 -29 -18 -61 -37 -72 -43 -11 -5 -45 -24 -75 -41 -44
-25 -62 -30 -94 -26 -21 3 -42 11 -46 17 -4 6 -10 11 -14 11 -3 -1 -8 0 -11 0
-3 1 -9 2 -13 3 -16 2 -87 41 -94 51 -4 6 -8 6 -8 1 0 -5 -8 -3 -17 5 -10 8
-35 24 -55 34 -21 11 -38 24 -38 29 0 5 -3 7 -6 3 -7 -6 -96 51 -102 65 -2 4
-7 8 -12 8 -14 0 -110 62 -110 71 0 5 -3 8 -7 7 -9 -3 -167 102 -171 114 -2 4
-8 8 -13 8 -5 0 -63 35 -128 78 -65 44 -125 82 -132 85 -12 6 -188 124 -214
144 -5 5 -53 37 -105 73 -52 35 -96 68 -98 72 -2 4 -9 8 -16 8 -7 0 -21 8 -32
18 -10 10 -41 33 -69 52 -27 19 -54 39 -60 43 -5 4 -67 49 -136 100 -151 110
-228 169 -329 250 -8 7 -70 56 -137 111 -68 54 -123 103 -123 109 0 6 -3 8 -6
4 -4 -3 -12 0 -19 7 -7 6 -36 32 -65 57 -124 105 -187 160 -229 199 -21 19
-85 78 -141 130 -117 107 -451 442 -550 551 -36 39 -74 81 -85 93 -32 34 -87
98 -130 150 -65 79 -117 138 -160 180 -104 102 -272 124 -415 53 -52 -26 -142
-107 -174 -157 -61 -94 -88 -246 -61 -337 7 -24 11 -43 9 -43 -13 0 77 -137
126 -190 8 -9 38 -43 65 -76 28 -32 70 -81 95 -109 25 -27 50 -55 55 -61 106
-123 452 -474 625 -634 181 -167 293 -268 322 -288 11 -8 37 -32 59 -53 22
-21 43 -39 47 -39 3 0 15 -9 27 -20 11 -11 67 -58 125 -105 58 -47 122 -100
144 -118 21 -18 46 -36 55 -41 9 -5 18 -12 21 -16 3 -3 34 -28 70 -55 36 -28
66 -53 68 -57 2 -5 8 -8 14 -8 6 0 21 -11 33 -24 12 -13 26 -25 32 -27 6 -2
25 -16 44 -31 80 -62 381 -282 499 -364 47 -32 87 -60 90 -63 3 -3 17 -12 33
-20 15 -8 27 -18 27 -23 0 -4 4 -8 8 -8 8 0 324 -208 349 -230 7 -5 15 -10 18
-10 3 0 39 -22 80 -50 41 -27 79 -50 85 -50 5 0 10 -4 10 -10 0 -5 7 -10 15
-10 8 0 15 -4 15 -10 0 -5 4 -10 9 -10 5 0 52 -27 104 -60 53 -33 99 -60 102
-60 4 0 13 -6 20 -12 26 -23 41 -33 55 -36 8 -2 22 -9 30 -16 25 -21 114 -71
123 -68 4 1 7 -2 7 -8 0 -5 19 -19 43 -30 23 -11 60 -31 82 -45 59 -37 241
-125 257 -125 8 0 18 -3 22 -7 3 -4 12 -8 19 -9 7 -2 46 -10 87 -19 69 -15
208 -16 275 -1 35 7 149 48 180 64 17 9 35 17 41 18 6 1 29 14 52 28 23 14 44
26 47 26 2 0 29 16 60 35 30 20 55 32 55 28 0 -4 5 0 11 10 5 9 17 17 24 17 8
0 15 5 15 10 0 6 6 10 14 10 8 0 21 6 28 14 8 7 56 39 108 71 103 63 221 138
259 164 13 9 31 21 39 26 134 85 408 270 410 276 2 5 8 7 13 3 5 -3 9 0 9 5 0
6 6 11 13 11 6 0 27 13 45 28 17 15 68 52 113 82 44 30 108 76 142 101 34 25
70 48 80 52 9 3 17 11 17 17 0 5 4 10 10 10 5 0 18 7 27 15 10 8 95 71 188
141 94 70 172 131 173 135 2 5 8 9 12 9 9 0 370 287 480 380 30 26 65 56 78
66 13 11 38 32 55 47 18 16 65 56 105 90 39 34 72 65 72 69 0 4 4 8 8 8 5 0
30 20 56 45 27 25 52 45 57 45 5 0 9 7 9 15 0 8 4 15 10 15 5 0 42 30 82 68
93 86 548 541 548 548 0 3 15 20 33 37 45 45 208 227 273 307 16 19 33 40 39
46 11 13 34 41 119 149 31 39 62 77 69 85 7 8 44 58 82 110 39 52 73 96 77 98
5 2 8 10 8 18 0 8 4 14 9 14 5 0 14 14 21 30 7 17 16 30 21 30 5 0 16 15 25
33 9 17 20 34 24 37 3 3 15 20 25 38 11 17 23 32 27 32 4 0 8 9 8 19 0 10 7
21 15 25 8 3 15 10 15 16 0 6 17 37 38 68 55 83 152 250 204 349 20 40 24 43
60 40 21 -2 38 0 38 3 0 4 20 4 45 0 24 -4 42 -3 39 2 -3 4 6 4 20 -2 18 -6
26 -6 26 1 0 6 4 7 10 4 13 -8 90 -12 90 -5 0 6 90 3 97 -4 3 -3 14 -1 24 5
13 7 19 6 19 -1 0 -7 6 -8 19 0 11 5 22 6 25 2 3 -5 20 -7 38 -5 82 8 118 8
118 -1 0 -6 5 -5 11 1 8 8 20 8 34 3 13 -5 25 -7 27 -5 8 8 88 11 88 4 0 -5
11 -5 23 0 13 5 30 6 37 1 7 -4 24 -5 39 -1 14 4 37 6 51 4 35 -5 41 -5 73 0
15 3 27 0 27 -7 0 -7 3 -7 8 -1 9 12 72 14 72 2 0 -4 5 -5 12 -1 18 11 118 10
118 -1 0 -7 3 -6 8 0 8 11 150 13 168 2 6 -3 14 -3 18 0 11 11 46 10 46 -1 0
-8 3 -8 8 -1 9 14 105 14 114 0 5 -6 8 -6 8 0 0 7 359 11 1053 12 578 1 1235
2 1459 3 224 1 412 -1 416 -4 5 -3 12 -3 15 0 8 8 911 9 924 1 7 -4 10 -14 7
-22 -8 -21 -10 -105 -3 -105 4 0 3 -19 -1 -42 -5 -24 -5 -49 0 -57 4 -8 4 -27
0 -43 -5 -17 -5 -28 1 -28 6 0 7 -5 4 -10 -9 -15 -10 -114 -1 -128 4 -7 2 -12
-4 -12 -7 0 -8 -6 -1 -18 7 -13 6 -23 -1 -30 -9 -9 -9 -12 1 -12 7 0 9 -5 6
-10 -9 -15 -11 -100 -3 -100 4 0 5 -6 2 -14 -9 -23 -10 -116 -1 -116 5 0 5 -5
2 -11 -9 -13 -11 -197 -2 -205 3 -3 3 -16 -1 -28 -4 -11 -6 -34 -5 -51 5 -49
4 -96 -2 -115 -3 -10 -1 -21 4 -24 6 -4 6 -18 1 -36 -5 -17 -5 -30 -1 -30 5 0
5 -19 1 -42 -5 -24 -5 -49 0 -57 4 -8 4 -27 0 -43 -5 -17 -5 -28 1 -28 6 0 7
-4 4 -10 -9 -14 -11 -143 -2 -157 4 -6 3 -14 -2 -18 -6 -3 -7 -15 -2 -28 5
-12 5 -34 0 -49 -5 -17 -4 -28 2 -28 6 0 7 -5 4 -11 -6 -9 -10 -179 -5 -204 1
-5 2 -14 0 -20 -5 -26 -4 -105 1 -105 4 0 3 -19 -1 -42 -5 -24 -5 -49 0 -57 4
-8 4 -27 0 -43 -5 -17 -5 -28 1 -28 6 0 7 -5 4 -10 -9 -15 -10 -114 -1 -128 4
-7 2 -12 -4 -12 -7 0 -8 -6 -1 -18 7 -13 6 -23 -1 -30 -9 -9 -9 -12 1 -12 7 0
9 -5 6 -10 -9 -15 -11 -100 -3 -100 4 0 5 -6 2 -14 -9 -23 -10 -116 -1 -116 5
0 5 -5 2 -11 -9 -13 -11 -197 -2 -205 3 -3 3 -16 -1 -28 -4 -11 -6 -34 -5 -51
5 -49 4 -96 -2 -115 -3 -10 -1 -21 4 -24 6 -4 6 -18 1 -36 -5 -17 -5 -30 -1
-30 5 0 5 -19 1 -42 -5 -24 -5 -49 0 -57 4 -8 4 -27 0 -43 -5 -17 -5 -28 1
-28 6 0 7 -4 4 -10 -9 -14 -11 -143 -2 -157 4 -6 3 -14 -2 -18 -6 -3 -7 -15
-2 -28 5 -12 5 -32 0 -44 -5 -13 -5 -23 1 -23 5 0 5 -12 0 -29 -4 -15 -4 -34
0 -41 4 -7 5 -20 3 -30 -5 -20 27 -95 54 -125 25 -28 66 -53 100 -61 15 -4
276 -7 578 -8 619 -1 592 -4 666 75 38 40 65 114 56 149 -3 11 -1 23 4 26 5 3
7 9 4 14 -5 7 -9 203 -5 225 2 6 2 14 1 18 -2 13 -3 290 0 302 1 6 1 13 0 17
-2 14 -2 213 -1 223 2 6 2 13 1 17 -2 14 -2 213 -1 223 2 6 2 13 1 17 -2 14
-2 213 -1 223 2 6 2 13 1 17 -2 14 -2 213 -1 223 2 6 2 13 1 17 -2 14 -2 213
-1 223 2 6 2 13 1 17 -2 14 -2 213 -1 223 2 6 2 13 1 17 -3 22 -3 219 0 222 2
3 2 39 -1 81 -3 42 -2 79 3 82 4 2 5 8 2 13 -5 7 -9 203 -5 225 2 6 2 13 1 17
-1 10 -3 209 -1 223 0 6 0 174 0 375 -1 497 -1 494 1 505 1 6 1 13 0 17 -2 14
-2 213 -1 223 2 6 2 13 1 17 -2 14 -2 213 -1 223 2 6 2 13 1 17 -2 14 -2 213
-1 223 2 6 2 13 1 17 -2 14 -2 213 -1 223 2 6 2 14 1 18 -2 10 -2 849 0 862 1
6 1 13 0 17 -2 14 -2 213 -1 223 2 6 2 13 1 17 -3 22 -3 219 0 222 2 3 2 39
-1 81 -3 42 -2 79 3 82 4 2 5 8 2 13 -5 7 -9 203 -5 225 2 6 2 13 1 17 -4 27
-3 219 1 224 3 3 2 21 -2 40 -5 20 -4 34 1 34 6 0 5 8 -1 19 -5 11 -6 22 -2
25 5 3 5 30 2 61 -3 31 -2 58 2 61 5 3 6 9 3 14 -5 7 -9 203 -5 225 2 6 2 13
1 17 -2 14 -2 213 -1 223 2 6 2 13 1 17 -2 14 -2 213 -1 223 2 6 2 13 1 17 -2
14 -2 213 -1 223 2 6 2 14 1 18 -4 23 -3 298 1 302 8 8 -18 97 -37 130 -29 50
-99 96 -150 98 -25 1 -45 4 -45 7 0 8 -206 4 -219 -4 -6 -4 -11 -4 -11 1 0 8
-218 9 -226 0 -3 -2 -21 -1 -40 3 -19 5 -37 4 -40 -1 -3 -5 -10 -7 -15 -4 -14
9 -132 10 -146 2 -7 -5 -13 -5 -13 0 0 8 -218 9 -226 1 -2 -3 -24 -2 -49 2
-25 4 -47 4 -50 1z"/>
<path d="M1933 19183 c-13 -2 -23 -9 -23 -14 0 -5 -7 -9 -15 -9 -19 0 -69 -50
-92 -93 -17 -30 -18 -205 -20 -3487 -2 -3333 -2 -3456 16 -3495 25 -55 53 -83
107 -111 l46 -23 557 3 c306 1 564 4 574 6 9 2 17 7 17 12 0 4 6 8 13 8 20 0
76 59 100 104 l21 41 -1 3440 c0 1892 -2 3449 -5 3460 -7 33 -35 78 -65 107
-63 59 -54 58 -656 56 -304 0 -562 -3 -574 -5z"/>
<path d="M27966 19180 c-39 -12 -106 -60 -106 -76 0 -8 -4 -14 -10 -14 -5 0
-10 -7 -10 -15 0 -8 -4 -15 -8 -15 -5 0 -10 -6 -11 -12 -1 -7 -3 -1568 -5
-3468 -2 -2440 1 -3462 8 -3480 30 -69 86 -127 130 -134 8 -1 19 -5 23 -9 3
-4 256 -7 561 -7 453 1 560 3 588 15 54 22 95 61 121 114 17 34 18 189 19
3476 0 2260 -3 3454 -10 3480 -14 58 -83 127 -141 143 -53 14 -1101 16 -1149
2z"/>
<path d="M305 18362 c-1 -1 -29 -3 -61 -3 -104 -1 -167 -33 -219 -114 -20 -30
-20 -68 -23 -2630 -2 -1865 0 -2615 8 -2651 8 -38 21 -62 51 -93 68 -69 65
-68 673 -68 297 0 554 4 572 8 45 13 109 62 130 101 19 35 27 168 23 423 0 66
-1 127 0 135 0 8 0 44 0 80 -1 36 -1 72 0 80 0 8 0 128 0 265 0 138 0 257 0
265 0 8 0 116 0 240 0 124 0 232 0 240 0 8 0 51 0 95 0 44 0 87 0 95 1 8 0 38
0 65 -1 28 -1 55 0 60 3 48 3 204 1 425 -1 41 -1 82 -1 90 1 8 0 38 0 65 -1
28 -1 57 0 65 0 8 1 33 0 55 0 22 0 47 0 55 0 8 0 44 0 80 -1 36 -1 72 0 80 0
8 0 128 0 265 0 138 0 257 0 265 0 8 0 69 0 135 -1 66 -1 127 0 135 0 8 0 44
0 80 -1 36 -1 72 0 80 0 8 0 44 0 80 -1 36 -1 72 0 80 0 8 0 44 0 80 -1 36 -1
72 0 80 0 8 0 128 0 265 0 138 0 257 0 265 0 8 0 69 0 135 -1 66 -1 127 0 135
5 116 -2 237 -16 273 -27 66 -89 120 -153 130 -35 6 -979 15 -985 9z"/>
<path d="M29895 18360 c-172 -5 -193 -11 -253 -67 -42 -41 -62 -102 -62 -191
0 -42 -1 -84 -1 -92 -1 -8 -1 -44 0 -80 0 -36 0 -72 0 -80 -1 -8 -1 -44 0 -80
0 -36 0 -72 0 -80 -1 -8 -1 -44 0 -80 0 -36 0 -72 0 -80 -1 -8 -1 -44 0 -80 0
-36 0 -72 0 -80 -1 -18 0 -132 2 -210 1 -30 1 -62 1 -70 -1 -8 -1 -127 -1
-265 0 -137 0 -257 0 -265 0 -8 0 -116 0 -240 0 -124 0 -232 0 -240 0 -8 0
-116 0 -240 0 -124 0 -232 0 -240 0 -8 0 -116 0 -240 0 -124 0 -232 0 -240 0
-8 0 -116 0 -240 0 -124 0 -232 0 -240 0 -8 0 -69 0 -135 1 -66 1 -127 0 -135
0 -8 0 -44 0 -80 1 -36 1 -72 0 -80 0 -8 0 -44 0 -80 1 -36 1 -72 0 -80 0 -8
0 -44 0 -80 1 -36 1 -72 0 -80 0 -8 0 -44 0 -80 1 -36 1 -72 0 -80 0 -8 0 -44
0 -80 1 -36 1 -72 0 -80 0 -8 0 -44 0 -80 1 -36 1 -72 0 -80 0 -8 0 -44 0 -80
1 -36 1 -72 0 -80 -6 -180 6 -331 28 -338 6 -2 11 -9 11 -16 0 -15 42 -56 56
-56 6 0 15 -5 22 -12 6 -6 20 -14 29 -17 10 -2 275 -5 590 -5 445 -1 575 2
585 12 6 6 18 12 25 12 6 0 23 11 36 24 31 31 70 86 61 86 -3 0 -1 6 5 13 8
10 11 717 11 2615 0 2880 5 2655 -64 2727 -19 19 -36 31 -40 28 -3 -4 -6 -2
-6 4 0 26 -104 34 -486 36 -214 1 -461 0 -549 -3z"/>
</g>
</svg>
